# MagicaVoxel @ Ephtracy

# material
mtllib bird.mtl
usemtl palette

# normals
vn -1 0 0
vn 1 0 0
vn 0 0 1
vn 0 0 -1
vn 0 -1 0
vn 0 1 0

# texcoords
vt 0.0605469 0.5
vt 0.0917969 0.5

# verts
v -12 3 5
v -12 3 2
v -12 3 -1
v -12 3 -4
v -12 4 5
v -12 4 2
v -12 4 -1
v -12 4 -4
v -9 4 5
v -9 4 2
v -9 4 -1
v -9 4 -4
v -9 9 5
v -9 9 2
v -9 9 -1
v -9 9 -4
v -7 3 5
v -7 3 2
v -7 3 -1
v -7 3 -4
v -7 4 5
v -7 4 2
v -7 4 -1
v -7 4 -4
v -6 4 5
v -6 4 2
v -6 4 -1
v -6 4 -4
v -6 9 5
v -6 9 2
v -6 9 -1
v -6 9 -4
v -12 3 5
v -12 4 5
v -9 4 5
v -9 9 5
v -7 3 5
v -7 4 5
v -6 4 5
v -6 9 5
v -12 3 -1
v -12 4 -1
v -9 4 -1
v -9 9 -1
v -7 3 -1
v -7 4 -1
v -6 4 -1
v -6 9 -1
v -12 3 2
v -12 4 2
v -9 4 2
v -9 9 2
v -7 3 2
v -7 4 2
v -6 4 2
v -6 9 2
v -12 3 -4
v -12 4 -4
v -9 4 -4
v -9 9 -4
v -7 3 -4
v -7 4 -4
v -6 4 -4
v -6 9 -4
v -12 3 5
v -7 3 5
v -12 3 2
v -7 3 2
v -12 3 -1
v -7 3 -1
v -12 3 -4
v -7 3 -4
v -7 4 5
v -6 4 5
v -7 4 2
v -6 4 2
v -7 4 -1
v -6 4 -1
v -7 4 -4
v -6 4 -4
v -12 4 5
v -9 4 5
v -12 4 2
v -9 4 2
v -12 4 -1
v -9 4 -1
v -12 4 -4
v -9 4 -4
v -9 9 5
v -6 9 5
v -9 9 2
v -6 9 2
v -9 9 -1
v -6 9 -1
v -9 9 -4
v -6 9 -4

# faces
f 5/2/1 2/2/1 1/2/1
f 6/2/1 2/2/1 5/2/1
f 7/2/1 4/2/1 3/2/1
f 8/2/1 4/2/1 7/2/1
f 13/1/1 10/1/1 9/1/1
f 14/1/1 10/1/1 13/1/1
f 15/1/1 12/1/1 11/1/1
f 16/1/1 12/1/1 15/1/1
f 17/2/2 18/2/2 21/2/2
f 21/2/2 18/2/2 22/2/2
f 19/2/2 20/2/2 23/2/2
f 23/2/2 20/2/2 24/2/2
f 25/1/2 26/1/2 29/1/2
f 29/1/2 26/1/2 30/1/2
f 27/1/2 28/1/2 31/1/2
f 31/1/2 28/1/2 32/1/2
f 35/2/3 34/2/3 33/2/3
f 37/2/3 35/2/3 33/2/3
f 38/1/3 36/1/3 35/1/3
f 38/2/3 35/2/3 37/2/3
f 39/1/3 36/1/3 38/1/3
f 40/1/3 36/1/3 39/1/3
f 43/2/3 42/2/3 41/2/3
f 45/2/3 43/2/3 41/2/3
f 46/1/3 44/1/3 43/1/3
f 46/2/3 43/2/3 45/2/3
f 47/1/3 44/1/3 46/1/3
f 48/1/3 44/1/3 47/1/3
f 49/2/4 50/2/4 51/2/4
f 49/2/4 51/2/4 53/2/4
f 51/1/4 52/1/4 54/1/4
f 53/2/4 51/2/4 54/2/4
f 54/1/4 52/1/4 55/1/4
f 55/1/4 52/1/4 56/1/4
f 57/2/4 58/2/4 59/2/4
f 57/2/4 59/2/4 61/2/4
f 59/1/4 60/1/4 62/1/4
f 61/2/4 59/2/4 62/2/4
f 62/1/4 60/1/4 63/1/4
f 63/1/4 60/1/4 64/1/4
f 67/2/5 66/2/5 65/2/5
f 68/2/5 66/2/5 67/2/5
f 71/2/5 70/2/5 69/2/5
f 72/2/5 70/2/5 71/2/5
f 75/1/5 74/1/5 73/1/5
f 76/1/5 74/1/5 75/1/5
f 79/1/5 78/1/5 77/1/5
f 80/1/5 78/1/5 79/1/5
f 81/2/6 82/2/6 83/2/6
f 83/2/6 82/2/6 84/2/6
f 85/2/6 86/2/6 87/2/6
f 87/2/6 86/2/6 88/2/6
f 89/1/6 90/1/6 91/1/6
f 91/1/6 90/1/6 92/1/6
f 93/1/6 94/1/6 95/1/6
f 95/1/6 94/1/6 96/1/6
