# MagicaVoxel @ Ephtracy

# material
mtllib untitled.mtl
usemtl palette

# normals
vn -1 0 0
vn 1 0 0
vn 0 0 1
vn 0 0 -1
vn 0 -1 0
vn 0 1 0

# texcoords
vt 0.0605469 0.5
vt 0.0917969 0.5
vt 0.232422 0.5

# verts
v -17 14 2
v -17 14 -2
v -17 16 2
v -17 16 -2
v -12 3 5
v -12 3 2
v -12 3 -1
v -12 3 -4
v -12 4 5
v -12 4 2
v -12 4 -1
v -12 4 -4
v -11 9 6
v -11 9 -5
v -11 11 6
v -11 11 -5
v -11 14 2
v -11 14 -2
v -11 16 2
v -11 16 -2
v -11 17 6
v -11 17 -5
v -9 4 5
v -9 4 2
v -9 4 -1
v -9 4 -4
v -9 9 5
v -9 9 2
v -9 9 -1
v -9 9 -4
v -7 15 20
v -7 15 11
v -7 15 -10
v -7 15 -19
v -7 16 20
v -7 16 11
v -7 16 -10
v -7 16 -19
v -3 14 12
v -3 14 6
v -3 14 -5
v -3 14 -11
v -3 15 12
v -3 15 11
v -3 15 6
v -3 15 -5
v -3 15 -10
v -3 15 -11
v 7 15 3
v 7 15 -2
v 7 16 3
v 7 16 -2
v 10 13 4
v 10 13 3
v 10 13 -2
v 10 13 -3
v 10 16 3
v 10 16 -2
v 10 21 4
v 10 21 -3
v -7 3 5
v -7 3 2
v -7 3 -1
v -7 3 -4
v -7 4 5
v -7 4 2
v -7 4 -1
v -7 4 -4
v -6 4 5
v -6 4 2
v -6 4 -1
v -6 4 -4
v -6 9 5
v -6 9 2
v -6 9 -1
v -6 9 -4
v 2 14 12
v 2 14 6
v 2 14 -5
v 2 14 -11
v 2 15 20
v 2 15 12
v 2 15 11
v 2 15 6
v 2 15 -5
v 2 15 -10
v 2 15 -11
v 2 15 -19
v 2 16 20
v 2 16 11
v 2 16 -10
v 2 16 -19
v 4 9 6
v 4 9 -5
v 4 11 6
v 4 11 -5
v 4 12 3
v 4 12 -2
v 4 15 3
v 4 15 -2
v 4 17 6
v 4 17 -5
v 7 12 3
v 7 12 -2
v 7 13 3
v 7 13 -2
v 16 13 4
v 16 13 3
v 16 13 -2
v 16 13 -3
v 16 17 3
v 16 17 -2
v 16 21 4
v 16 21 -3
v 18 13 3
v 18 13 2
v 18 13 -1
v 18 13 -2
v 18 16 2
v 18 16 -1
v 18 17 3
v 18 17 -2
v 20 13 2
v 20 13 -1
v 20 16 2
v 20 16 -1
v -7 15 20
v -7 16 20
v 2 15 20
v 2 16 20
v -3 14 12
v -3 15 12
v 2 14 12
v 2 15 12
v -11 9 6
v -11 11 6
v -11 17 6
v -3 14 6
v -3 15 6
v 2 14 6
v 2 15 6
v 4 9 6
v 4 11 6
v 4 17 6
v -12 3 5
v -12 4 5
v -9 4 5
v -9 9 5
v -7 3 5
v -7 4 5
v -6 4 5
v -6 9 5
v 10 13 4
v 10 21 4
v 16 13 4
v 16 21 4
v 4 12 3
v 4 15 3
v 7 12 3
v 7 13 3
v 7 15 3
v 7 16 3
v 10 13 3
v 10 16 3
v 16 13 3
v 16 17 3
v 18 13 3
v 18 17 3
v -17 14 2
v -17 16 2
v -11 14 2
v -11 16 2
v 18 13 2
v 18 16 2
v 20 13 2
v 20 16 2
v -12 3 -1
v -12 4 -1
v -9 4 -1
v -9 9 -1
v -7 3 -1
v -7 4 -1
v -6 4 -1
v -6 9 -1
v -7 15 -10
v -7 16 -10
v -3 15 -10
v 2 15 -10
v 2 16 -10
v -7 15 11
v -7 16 11
v -3 15 11
v 2 15 11
v 2 16 11
v -12 3 2
v -12 4 2
v -9 4 2
v -9 9 2
v -7 3 2
v -7 4 2
v -6 4 2
v -6 9 2
v 18 13 -1
v 18 16 -1
v 20 13 -1
v 20 16 -1
v -17 14 -2
v -17 16 -2
v -11 14 -2
v -11 16 -2
v 4 12 -2
v 4 15 -2
v 7 12 -2
v 7 13 -2
v 7 15 -2
v 7 16 -2
v 10 13 -2
v 10 16 -2
v 16 13 -2
v 16 17 -2
v 18 13 -2
v 18 17 -2
v 10 13 -3
v 10 21 -3
v 16 13 -3
v 16 21 -3
v -12 3 -4
v -12 4 -4
v -9 4 -4
v -9 9 -4
v -7 3 -4
v -7 4 -4
v -6 4 -4
v -6 9 -4
v -11 9 -5
v -11 11 -5
v -11 17 -5
v -3 14 -5
v -3 15 -5
v 2 14 -5
v 2 15 -5
v 4 9 -5
v 4 11 -5
v 4 17 -5
v -3 14 -11
v -3 15 -11
v 2 14 -11
v 2 15 -11
v -7 15 -19
v -7 16 -19
v 2 15 -19
v 2 16 -19
v -12 3 5
v -7 3 5
v -12 3 2
v -7 3 2
v -12 3 -1
v -7 3 -1
v -12 3 -4
v -7 3 -4
v -7 4 5
v -6 4 5
v -7 4 2
v -6 4 2
v -7 4 -1
v -6 4 -1
v -7 4 -4
v -6 4 -4
v -11 9 6
v 4 9 6
v -9 9 5
v -6 9 5
v -9 9 2
v -6 9 2
v -9 9 -1
v -6 9 -1
v -9 9 -4
v -6 9 -4
v -11 9 -5
v 4 9 -5
v 4 12 3
v 7 12 3
v 4 12 -2
v 7 12 -2
v 10 13 4
v 16 13 4
v 7 13 3
v 10 13 3
v 16 13 3
v 18 13 3
v 18 13 2
v 20 13 2
v 18 13 -1
v 20 13 -1
v 7 13 -2
v 10 13 -2
v 16 13 -2
v 18 13 -2
v 10 13 -3
v 16 13 -3
v -3 14 12
v 2 14 12
v -3 14 6
v 2 14 6
v -17 14 2
v -11 14 2
v -17 14 -2
v -11 14 -2
v -3 14 -5
v 2 14 -5
v -3 14 -11
v 2 14 -11
v -7 15 20
v 2 15 20
v -3 15 12
v 2 15 12
v -7 15 11
v -3 15 11
v -7 15 -10
v -3 15 -10
v -3 15 -11
v 2 15 -11
v -7 15 -19
v 2 15 -19
v -12 4 5
v -9 4 5
v -12 4 2
v -9 4 2
v -12 4 -1
v -9 4 -1
v -12 4 -4
v -9 4 -4
v -3 15 11
v 2 15 11
v -3 15 6
v 2 15 6
v 4 15 3
v 7 15 3
v 4 15 -2
v 7 15 -2
v -3 15 -5
v 2 15 -5
v -3 15 -10
v 2 15 -10
v -7 16 20
v 2 16 20
v -7 16 11
v 2 16 11
v 7 16 3
v 10 16 3
v -17 16 2
v -11 16 2
v 18 16 2
v 20 16 2
v 18 16 -1
v 20 16 -1
v -17 16 -2
v -11 16 -2
v 7 16 -2
v 10 16 -2
v -7 16 -10
v 2 16 -10
v -7 16 -19
v 2 16 -19
v -11 17 6
v 4 17 6
v 16 17 3
v 18 17 3
v 16 17 -2
v 18 17 -2
v -11 17 -5
v 4 17 -5
v 10 21 4
v 16 21 4
v 10 21 -3
v 16 21 -3

# faces
f 3/3/1 2/3/1 1/3/1
f 4/3/1 2/3/1 3/3/1
f 9/2/1 6/2/1 5/2/1
f 10/2/1 6/2/1 9/2/1
f 11/2/1 8/2/1 7/2/1
f 12/2/1 8/2/1 11/2/1
f 15/1/1 14/1/1 13/1/1
f 16/1/1 14/1/1 15/1/1
f 17/3/1 16/3/1 15/3/1
f 18/3/1 16/3/1 17/3/1
f 19/3/1 17/3/1 15/3/1
f 20/3/1 16/3/1 18/3/1
f 21/3/1 19/3/1 15/3/1
f 21/3/1 20/3/1 19/3/1
f 22/3/1 16/3/1 20/3/1
f 22/3/1 20/3/1 21/3/1
f 27/1/1 24/1/1 23/1/1
f 28/1/1 24/1/1 27/1/1
f 29/1/1 26/1/1 25/1/1
f 30/1/1 26/1/1 29/1/1
f 35/3/1 32/3/1 31/3/1
f 36/3/1 32/3/1 35/3/1
f 37/3/1 34/3/1 33/3/1
f 38/3/1 34/3/1 37/3/1
f 43/3/1 40/3/1 39/3/1
f 44/3/1 40/3/1 43/3/1
f 45/3/1 40/3/1 44/3/1
f 46/3/1 42/3/1 41/3/1
f 47/3/1 42/3/1 46/3/1
f 48/3/1 42/3/1 47/3/1
f 51/1/1 50/1/1 49/1/1
f 52/1/1 50/1/1 51/1/1
f 57/1/1 54/1/1 53/1/1
f 58/1/1 56/1/1 55/1/1
f 59/1/1 57/1/1 53/1/1
f 59/1/1 58/1/1 57/1/1
f 60/1/1 56/1/1 58/1/1
f 60/1/1 58/1/1 59/1/1
f 61/2/2 62/2/2 65/2/2
f 65/2/2 62/2/2 66/2/2
f 63/2/2 64/2/2 67/2/2
f 67/2/2 64/2/2 68/2/2
f 69/1/2 70/1/2 73/1/2
f 73/1/2 70/1/2 74/1/2
f 71/1/2 72/1/2 75/1/2
f 75/1/2 72/1/2 76/1/2
f 77/3/2 78/3/2 82/3/2
f 82/3/2 78/3/2 83/3/2
f 83/3/2 78/3/2 84/3/2
f 79/3/2 80/3/2 85/3/2
f 85/3/2 80/3/2 86/3/2
f 86/3/2 80/3/2 87/3/2
f 81/3/2 82/3/2 89/3/2
f 82/3/2 83/3/2 89/3/2
f 89/3/2 83/3/2 90/3/2
f 87/3/2 88/3/2 91/3/2
f 86/3/2 87/3/2 91/3/2
f 91/3/2 88/3/2 92/3/2
f 93/1/2 94/1/2 95/1/2
f 95/1/2 94/1/2 96/1/2
f 95/3/2 96/3/2 97/3/2
f 97/3/2 96/3/2 98/3/2
f 95/3/2 97/3/2 99/3/2
f 98/3/2 96/3/2 100/3/2
f 95/3/2 99/3/2 101/3/2
f 99/3/2 100/3/2 101/3/2
f 100/3/2 96/3/2 102/3/2
f 101/3/2 100/3/2 102/3/2
f 103/1/2 104/1/2 105/1/2
f 105/1/2 104/1/2 106/1/2
f 107/1/2 108/1/2 111/1/2
f 109/1/2 110/1/2 112/1/2
f 107/1/2 111/1/2 113/1/2
f 111/1/2 112/1/2 113/1/2
f 112/1/2 110/1/2 114/1/2
f 113/1/2 112/1/2 114/1/2
f 115/2/2 116/2/2 119/2/2
f 117/2/2 118/2/2 120/2/2
f 115/2/2 119/2/2 121/2/2
f 119/2/2 120/2/2 121/2/2
f 120/2/2 118/2/2 122/2/2
f 121/2/2 120/2/2 122/2/2
f 123/2/2 124/2/2 125/2/2
f 125/2/2 124/2/2 126/2/2
f 129/3/3 128/3/3 127/3/3
f 130/3/3 128/3/3 129/3/3
f 133/3/3 132/3/3 131/3/3
f 134/3/3 132/3/3 133/3/3
f 138/3/3 137/3/3 136/3/3
f 139/3/3 137/3/3 138/3/3
f 140/3/3 138/3/3 136/3/3
f 141/3/3 137/3/3 139/3/3
f 142/1/3 136/1/3 135/1/3
f 143/3/3 141/3/3 140/3/3
f 143/1/3 136/1/3 142/1/3
f 143/3/3 140/3/3 136/3/3
f 144/3/3 137/3/3 141/3/3
f 144/3/3 141/3/3 143/3/3
f 147/2/3 146/2/3 145/2/3
f 149/2/3 147/2/3 145/2/3
f 150/1/3 148/1/3 147/1/3
f 150/2/3 147/2/3 149/2/3
f 151/1/3 148/1/3 150/1/3
f 152/1/3 148/1/3 151/1/3
f 155/1/3 154/1/3 153/1/3
f 156/1/3 154/1/3 155/1/3
f 159/1/3 158/1/3 157/1/3
f 160/1/3 158/1/3 159/1/3
f 161/1/3 158/1/3 160/1/3
f 163/1/3 162/1/3 161/1/3
f 163/1/3 161/1/3 160/1/3
f 164/1/3 162/1/3 163/1/3
f 167/2/3 166/2/3 165/2/3
f 168/2/3 166/2/3 167/2/3
f 171/3/3 170/3/3 169/3/3
f 172/3/3 170/3/3 171/3/3
f 175/2/3 174/2/3 173/2/3
f 176/2/3 174/2/3 175/2/3
f 179/2/3 178/2/3 177/2/3
f 181/2/3 179/2/3 177/2/3
f 182/1/3 180/1/3 179/1/3
f 182/2/3 179/2/3 181/2/3
f 183/1/3 180/1/3 182/1/3
f 184/1/3 180/1/3 183/1/3
f 187/3/3 186/3/3 185/3/3
f 188/3/3 186/3/3 187/3/3
f 189/3/3 186/3/3 188/3/3
f 190/3/4 191/3/4 192/3/4
f 192/3/4 191/3/4 193/3/4
f 193/3/4 191/3/4 194/3/4
f 195/2/4 196/2/4 197/2/4
f 195/2/4 197/2/4 199/2/4
f 197/1/4 198/1/4 200/1/4
f 199/2/4 197/2/4 200/2/4
f 200/1/4 198/1/4 201/1/4
f 201/1/4 198/1/4 202/1/4
f 203/2/4 204/2/4 205/2/4
f 205/2/4 204/2/4 206/2/4
f 207/3/4 208/3/4 209/3/4
f 209/3/4 208/3/4 210/3/4
f 211/1/4 212/1/4 213/1/4
f 213/1/4 212/1/4 214/1/4
f 214/1/4 212/1/4 215/1/4
f 215/1/4 216/1/4 217/1/4
f 214/1/4 215/1/4 217/1/4
f 217/1/4 216/1/4 218/1/4
f 219/2/4 220/2/4 221/2/4
f 221/2/4 220/2/4 222/2/4
f 223/1/4 224/1/4 225/1/4
f 225/1/4 224/1/4 226/1/4
f 227/2/4 228/2/4 229/2/4
f 227/2/4 229/2/4 231/2/4
f 229/1/4 230/1/4 232/1/4
f 231/2/4 229/2/4 232/2/4
f 232/1/4 230/1/4 233/1/4
f 233/1/4 230/1/4 234/1/4
f 236/3/4 237/3/4 238/3/4
f 238/3/4 237/3/4 239/3/4
f 236/3/4 238/3/4 240/3/4
f 239/3/4 237/3/4 241/3/4
f 235/1/4 236/1/4 242/1/4
f 240/3/4 241/3/4 243/3/4
f 242/1/4 236/1/4 243/1/4
f 236/3/4 240/3/4 243/3/4
f 241/3/4 237/3/4 244/3/4
f 243/3/4 241/3/4 244/3/4
f 245/3/4 246/3/4 247/3/4
f 247/3/4 246/3/4 248/3/4
f 249/3/4 250/3/4 251/3/4
f 251/3/4 250/3/4 252/3/4
f 255/2/5 254/2/5 253/2/5
f 256/2/5 254/2/5 255/2/5
f 259/2/5 258/2/5 257/2/5
f 260/2/5 258/2/5 259/2/5
f 263/1/5 262/1/5 261/1/5
f 264/1/5 262/1/5 263/1/5
f 267/1/5 266/1/5 265/1/5
f 268/1/5 266/1/5 267/1/5
f 271/1/5 270/1/5 269/1/5
f 272/1/5 270/1/5 271/1/5
f 273/1/5 271/1/5 269/1/5
f 274/1/5 270/1/5 272/1/5
f 275/1/5 273/1/5 269/1/5
f 275/1/5 274/1/5 273/1/5
f 276/1/5 270/1/5 274/1/5
f 276/1/5 274/1/5 275/1/5
f 277/1/5 275/1/5 269/1/5
f 278/1/5 270/1/5 276/1/5
f 279/1/5 277/1/5 269/1/5
f 279/1/5 278/1/5 277/1/5
f 280/1/5 270/1/5 278/1/5
f 280/1/5 278/1/5 279/1/5
f 283/1/5 282/1/5 281/1/5
f 284/1/5 282/1/5 283/1/5
f 288/1/5 286/1/5 285/1/5
f 289/1/5 286/1/5 288/1/5
f 291/2/5 290/2/5 289/2/5
f 293/2/5 291/2/5 289/2/5
f 293/2/5 292/2/5 291/2/5
f 294/2/5 292/2/5 293/2/5
f 295/1/5 288/1/5 287/1/5
f 295/1/5 289/1/5 288/1/5
f 296/1/5 289/1/5 295/1/5
f 297/2/5 293/2/5 289/2/5
f 297/1/5 289/1/5 296/1/5
f 298/2/5 293/2/5 297/2/5
f 299/1/5 297/1/5 296/1/5
f 300/1/5 297/1/5 299/1/5
f 303/3/5 302/3/5 301/3/5
f 304/3/5 302/3/5 303/3/5
f 307/3/5 306/3/5 305/3/5
f 308/3/5 306/3/5 307/3/5
f 311/3/5 310/3/5 309/3/5
f 312/3/5 310/3/5 311/3/5
f 315/3/5 314/3/5 313/3/5
f 316/3/5 314/3/5 315/3/5
f 317/3/5 315/3/5 313/3/5
f 318/3/5 315/3/5 317/3/5
f 321/3/5 320/3/5 319/3/5
f 323/3/5 321/3/5 319/3/5
f 323/3/5 322/3/5 321/3/5
f 324/3/5 322/3/5 323/3/5
f 325/2/6 326/2/6 327/2/6
f 327/2/6 326/2/6 328/2/6
f 329/2/6 330/2/6 331/2/6
f 331/2/6 330/2/6 332/2/6
f 333/3/6 334/3/6 335/3/6
f 335/3/6 334/3/6 336/3/6
f 337/1/6 338/1/6 339/1/6
f 339/1/6 338/1/6 340/1/6
f 341/3/6 342/3/6 343/3/6
f 343/3/6 342/3/6 344/3/6
f 345/3/6 346/3/6 347/3/6
f 347/3/6 346/3/6 348/3/6
f 353/2/6 354/2/6 355/2/6
f 355/2/6 354/2/6 356/2/6
f 351/3/6 352/3/6 357/3/6
f 357/3/6 352/3/6 358/3/6
f 349/1/6 350/1/6 359/1/6
f 359/1/6 350/1/6 360/1/6
f 361/3/6 362/3/6 363/3/6
f 363/3/6 362/3/6 364/3/6
f 367/2/6 368/2/6 369/2/6
f 369/2/6 368/2/6 370/2/6
f 365/3/6 366/3/6 371/3/6
f 371/3/6 366/3/6 372/3/6
f 373/1/6 374/1/6 375/1/6
f 375/1/6 374/1/6 376/1/6
